<?xml version="1.0" encoding="utf-8"?>
<!-- Generator: Adobe Illustrator 22.1.0, SVG Export Plug-In . SVG Version: 6.00 Build 0)  -->
<svg version="1.1" id="Шар_1" xmlns="http://www.w3.org/2000/svg" xmlns:xlink="http://www.w3.org/1999/xlink" x="0px" y="0px"
	 viewBox="0 0 2559.7 2307.8" style="enable-background:new 0 0 2559.7 2307.8;" xml:space="preserve">
<style type="text/css">
	.st0{fill:#F0ECED;}
</style>
<title>logoМонтажна область 2</title>
<path class="st0" d="M0,1545.9v188.8c0,364.7,181.9,573.1,532.8,573.1s532.8-208.4,532.8-573v-508c0-335.4-133.2-521-396.3-521
	c-142.9,0-246.9,58.6-311.9,166l2.6-546.3h649.7V0H2.6v1334.9h324.8v-65.1c0-162.8,81.9-238.3,195.6-238.3s185.2,61.9,185.2,224.7
	v501.4c0,162.8-71.5,221.4-185.2,221.4s-185.2-58.6-185.2-221.4V1546L0,1545.9L0,1545.9z"/>
<path class="st0" d="M1494.2,1545.9v188.8c0,364.7,181.9,573.1,532.8,573.1s532.8-208.4,532.8-573v-508c0-335.4-133.2-521-396.3-521
	c-142.9,0-246.9,58.6-311.9,166l2.6-546.3h649.7V0h-1007v1334.9h324.8v-65.1c0-162.8,81.9-238.3,195.6-238.3
	c113.7,0,185.2,61.9,185.2,224.7v501.4c0,162.8-71.5,221.4-185.2,221.4s-185.2-58.6-185.2-221.4V1546L1494.2,1545.9L1494.2,1545.9z"
	/>
</svg>
