<?xml version="1.0" encoding="utf-8"?>
<!-- Generator: Adobe Illustrator 22.1.0, SVG Export Plug-In . SVG Version: 6.00 Build 0)  -->
<svg version="1.1" id="Шар_1" xmlns="http://www.w3.org/2000/svg" xmlns:xlink="http://www.w3.org/1999/xlink" x="0px" y="0px"
	 viewBox="0 0 200 200" style="enable-background:new 0 0 200 200;" xml:space="preserve">
<style type="text/css">
	.st0{fill:none;stroke:#3A020C;stroke-width:8.99;stroke-miterlimit:10;}
</style>
<title>phone_iconМонтажна область 1</title>
<path class="st0" d="M143,137.5c-9.2-0.3-19.1,9.6-27.8,3c-8-6-21.7-28.9-23.7-32.4s-15-26.8-16.2-36.7C74,60.6,87.5,57,91.8,48.8
	c3.2-6-2.6-14.8-10.9-29.2C70.8,2.2,66.6,0.4,53.1,11.4c-10.8,8.8-22.4,19.2-22.7,38c-0.3,14.2,11.7,35,34,73.7l0,0l0.3,0.5l0.3,0.5
	l0,0c22.3,38.7,34.4,59.4,46.8,66.3c16.5,9.1,31.2,4.2,44.3-0.7c16.3-6.1,16.8-10.6,6.7-28.2C154.6,147.1,149.8,137.7,143,137.5z"/>
</svg>
